<!DOCTYPE svg PUBLIC "-//W3C//DTD SVG 1.1//EN" "http://www.w3.org/Graphics/SVG/1.1/DTD/svg11.dtd">
<!-- Uploaded to: SVG Repo, www.svgrepo.com, Transformed by: SVG Repo Mixer Tools -->
<svg fill="#000000" version="1.1" id="Capa_1" xmlns="http://www.w3.org/2000/svg" xmlns:xlink="http://www.w3.org/1999/xlink" width="800px" height="800px" viewBox="0 0 541.207 541.207" xml:space="preserve" transform="matrix(-1, 0, 0, 1, 0, 0)">
<g id="SVGRepo_bgCarrier" stroke-width="0"/>
<g id="SVGRepo_tracerCarrier" stroke-linecap="round" stroke-linejoin="round"/>
<g id="SVGRepo_iconCarrier"> <g> <g> <path d="M94.064,509.43c3.589,3.584,9.4,3.576,12.983-0.01l15.132-15.146l42.13-42.176l15.138-15.156 c3.583-3.586,3.58-9.4-0.006-12.984l-15.156-15.137c-28.008-27.979-43.446-65.193-43.467-104.799 c-0.021-39.603,15.374-76.84,43.348-104.842c27.935-27.953,65.153-43.348,104.805-43.348c25.658,0,50.336,6.46,72.142,18.599 c4.432,2.466,4.973,7.622,1.39,11.208l-15.364,15.389l-37.023,37.081c-3.583,3.589-2.414,7.053,2.61,7.742l51.916,7.112 l157.223,21.54l31.533,4.32c5.024,0.688,8.471-2.816,7.702-7.828l-4.835-31.457L512.425,84.42l-7.788-50.661 c-0.771-5.012-4.299-6.166-7.883-2.58L460.53,67.44l-18.547,18.565c-3.583,3.586-9.706,3.932-13.791,0.93 c-45.849-33.706-101.115-51.928-159.154-51.928c-72.008,0-139.606,27.983-190.335,78.783C27.91,164.604-0.04,232.188,0,304.092 c0.04,71.904,28.063,139.455,78.912,190.215L94.064,509.43z"/> </g> </g> </g>
</svg>